<?xml version="1.0" encoding="utf-8"?>
<!-- Generator: Adobe Illustrator 23.1.0, SVG Export Plug-In . SVG Version: 6.00 Build 0)  -->
<svg version="1.1" id="rwlogo" xmlns="http://www.w3.org/2000/svg" xmlns:xlink="http://www.w3.org/1999/xlink" x="0px" y="0px"
	 viewBox="0 0 2394.3 758.6" style="enable-background:new 0 0 2394.3 758.6;" xml:space="preserve">
<style type="text/css">
	.st0{opacity:5.000000e-02;}
	.st1{opacity:0.7;fill:#333333;enable-background:new    ;}
	.st2{fill:#29ABE2;}
	.st3{fill:#006699;}
	.st4{enable-background:new    ;}
	.st5{fill:#E6E6E6;}
	.st6{fill:#333333;}
</style>
<g id="rwectangle" class="st0">
	<rect x="295.3" y="169.8" class="st1" width="2054.4" height="341.6"/>
</g>
<polygon id="rwb" class="st2" points="295.9,0 0,170.8 0,512.5 295.9,683.4 591.8,512.5 591.8,170.8 "/>
<polygon id="rwa" class="st3" points="591.6,171.3 295.8,0.5 295.8,683.8 591.6,513 "/>
<polygon id="black" points="295.7,61.3 56,199.7 56,476.5 295.7,614.9 535.4,476.5 535.4,199.7 "/>
<g class="st4">
	<path class="st5" d="M337,485.7l-68.6-120.3h-17.5l-0.3,120.2l-77-0.2l0.7-318.1l131.4,0.3c25.2,0.1,46.5,4.5,63.9,13.2
		s30.4,20.7,39.1,35.9s13,32.5,12.9,52c-0.1,23.1-6.5,42.7-19.3,58.9c-12.8,16.2-31.3,27.2-55.7,33.2l75.3,125.3L337,485.7z
		 M251,312.7l47.7,0.1c15.3,0,26.6-3.3,33.8-10c7.2-6.7,10.8-16.7,10.9-29.9c0-12.6-3.6-22.5-11-29.7c-7.3-7.2-18.5-10.8-33.5-10.9
		l-47.7-0.1L251,312.7z"/>
</g>
<g class="st4">
	<path d="M732.7,341.8l-30.6-53.4h-7.8v53.4h-34.2V200.4h58.4c11.2,0,20.7,1.9,28.4,5.8c7.7,3.9,13.5,9.2,17.4,15.9
		s5.8,14.4,5.8,23.1c0,10.3-2.8,19-8.5,26.2c-5.7,7.2-13.9,12.1-24.7,14.8l33.6,55.6H732.7z M694.3,265h21.2c6.8,0,11.8-1.5,15-4.5
		s4.8-7.4,4.8-13.3c0-5.6-1.6-10-4.9-13.2c-3.3-3.2-8.2-4.8-14.9-4.8h-21.2L694.3,265L694.3,265z"/>
	<path d="M874.9,316h-53l-8.8,25.8h-36l51.8-140.4h39.4l51.8,140.4h-36.4L874.9,316z M866.1,290l-17.6-52l-17.8,52H866.1z"/>
	<path d="M1092.3,201.4v140.4h-34.2V254l-30.4,87.8h-29.6l-30.6-88v88h-34.2V201.4h41.8l38.2,97.8l37.4-97.8L1092.3,201.4
		L1092.3,201.4z"/>
	<path d="M1219.4,207.5c10.9,6.2,19.4,14.8,25.7,25.8c6.3,11,9.4,23.4,9.4,37.3s-3.2,26.3-9.5,37.4s-14.9,19.7-25.8,25.9
		c-10.9,6.2-22.9,9.3-36.1,9.3s-25.2-3.1-36.1-9.3c-10.9-6.2-19.5-14.8-25.8-25.9s-9.5-23.5-9.5-37.4s3.2-26.3,9.5-37.3
		s14.9-19.6,25.8-25.8s22.9-9.3,36.1-9.3C1196.4,198.2,1208.5,201.3,1219.4,207.5z M1156.4,240.9c-6.6,7.3-9.9,17.2-9.9,29.7
		c0,12.4,3.3,22.3,9.9,29.6c6.6,7.3,15.5,11,26.7,11c11.1,0,19.9-3.7,26.6-11s10-17.2,10-29.6s-3.3-22.3-9.9-29.6s-15.5-11-26.7-11
		S1163,233.6,1156.4,240.9z"/>
	<path d="M1399.3,341.8h-34.2l-57.2-86.8v86.8h-34.2V200.4h34.2l57.2,87.6v-87.6h34.2V341.8z"/>
	<path d="M1510.5,316h-53l-8.8,25.8h-36l51.8-140.4h39.4l51.8,140.4h-36.4L1510.5,316z M1501.7,290l-17.6-52l-17.8,52H1501.7z"/>
	<path d="M1761.1,200.4l-33.8,141.4h-42.4l-22.6-94.6l-22.8,94.6h-42.4l-33.8-141.4h37.2l18.2,102.4l24.8-102.4h37.4l24.8,102.4
		l18.4-102.4H1761.1z"/>
	<path d="M1882.6,207.5c10.9,6.2,19.4,14.8,25.7,25.8c6.3,11,9.4,23.4,9.4,37.3s-3.2,26.3-9.5,37.4s-14.9,19.7-25.8,25.9
		c-10.9,6.2-22.9,9.3-36.1,9.3s-25.2-3.1-36.1-9.3c-10.9-6.2-19.5-14.8-25.8-25.9s-9.5-23.5-9.5-37.4s3.2-26.3,9.5-37.3
		s14.9-19.6,25.8-25.8s22.9-9.3,36.1-9.3C1859.6,198.2,1871.7,201.3,1882.6,207.5z M1819.6,240.9c-6.6,7.3-9.9,17.2-9.9,29.7
		c0,12.4,3.3,22.3,9.9,29.6c6.6,7.3,15.5,11,26.7,11c11.1,0,19.9-3.7,26.6-11s10-17.2,10-29.6s-3.3-22.3-9.9-29.6s-15.5-11-26.7-11
		S1826.2,233.6,1819.6,240.9z"/>
	<path d="M2009.5,341.8l-30.6-53.4h-7.8v53.4h-34.2V200.4h58.4c11.2,0,20.7,1.9,28.4,5.8c7.7,3.9,13.5,9.2,17.4,15.9
		s5.8,14.4,5.8,23.1c0,10.3-2.8,19-8.5,26.2c-5.7,7.2-13.9,12.1-24.7,14.8l33.6,55.6H2009.5z M1971.1,265h21.2
		c6.8,0,11.8-1.5,15-4.5s4.8-7.4,4.8-13.3c0-5.6-1.6-10-4.9-13.2s-8.2-4.8-14.9-4.8h-21.2V265z"/>
	<path d="M2130.7,269.6l57,72.2h-41.4l-48-63.4v63.4h-34.2V200.4h34.2v62.2l48.4-62.2h41L2130.7,269.6z"/>
	<path d="M2298,322.6c-3.8,6.3-9.4,11.3-16.8,15c-7.4,3.7-16.4,5.6-26.9,5.6c-15.9,0-28.9-3.9-39.2-11.6s-15.9-18.5-16.8-32.4h36.4
		c0.5,5.3,2.4,9.5,5.7,12.6s7.4,4.6,12.5,4.6c4.4,0,7.9-1.2,10.4-3.6s3.8-5.6,3.8-9.6c0-3.6-1.2-6.6-3.5-9s-5.2-4.4-8.7-5.9
		s-8.3-3.4-14.4-5.5c-8.9-3.1-16.2-6-21.9-8.9s-10.5-7.1-14.6-12.8c-4.1-5.7-6.1-13-6.1-22.1c0-8.4,2.1-15.7,6.4-21.8
		c4.3-6.1,10.2-10.8,17.7-14.1s16.2-4.9,25.9-4.9c15.7,0,28.2,3.7,37.5,11.2s14.5,17.7,15.7,30.8h-37c-0.7-4.7-2.4-8.4-5.1-11.1
		c-2.7-2.7-6.4-4.1-11.1-4.1c-4,0-7.2,1.1-9.7,3.2c-2.5,2.1-3.7,5.3-3.7,9.4c0,3.3,1.1,6.2,3.3,8.5s5,4.2,8.3,5.7s8.1,3.3,14.4,5.6
		c9.1,3.1,16.5,6.1,22.2,9.1s10.7,7.4,14.8,13.1s6.2,13.2,6.2,22.4C2303.7,309.4,2301.8,316.3,2298,322.6z"/>
</g>
<g class="st4">
	<path class="st6" d="M745.5,413.4l-15.9,61.9h-21.2l-11.2-41.5l-11.3,41.5h-21.2l-15.9-61.9h19L676,458l11.5-44.6h20.2l11.9,44.7
		l8.2-44.7H745.5z"/>
	<path class="st6" d="M808.6,419.8c4.2,4.7,6.3,11.2,6.3,19.5v36h-19v-33.7c0-4.1-1.1-7.4-3.3-9.7c-2.2-2.3-5.1-3.5-8.7-3.5
		c-3.8,0-6.9,1.2-9.2,3.7c-2.3,2.4-3.4,5.9-3.4,10.4v32.9h-19v-82.1h19v31.5c1.8-3.7,4.4-6.6,7.9-8.8c3.5-2.1,7.6-3.2,12.4-3.2
		C798.7,412.7,804.4,415.1,808.6,419.8z"/>
	<path class="st6" d="M885.7,447.8h-43c0.2,4.7,1.4,8,3.6,10c2.1,2,4.9,3.1,8.2,3.1c2.8,0,5.1-0.7,7-2.1c1.8-1.4,3.1-3.2,3.7-5.4
		h20.1c-0.8,4.4-2.6,8.3-5.3,11.7c-2.7,3.4-6.2,6.1-10.4,8.1s-8.9,2.9-14.1,2.9c-6.1,0-11.5-1.3-16.2-3.8c-4.7-2.6-8.4-6.2-11-11
		c-2.7-4.8-4-10.4-4-16.9s1.3-12.2,3.9-16.9c2.6-4.8,6.3-8.4,11-11s10.1-3.8,16.2-3.8c6.1,0,11.5,1.3,16.2,3.8s8.3,6,10.8,10.6
		c2.6,4.6,3.8,9.8,3.8,15.7C886.2,444.3,886,446,885.7,447.8z M863.7,430.7c-2.3-2-5.1-3.1-8.4-3.1c-3.5,0-6.4,1-8.7,3.1
		s-3.6,5.1-3.9,9.1H867C867.1,435.8,866,432.7,863.7,430.7z"/>
	<path class="st6" d="M924.2,416.1c3.7-2.2,7.8-3.3,12.2-3.3V433H931c-5,0-8.9,1.1-11.7,3.2s-4.2,5.8-4.2,10.9v28.2h-19v-61.9h19
		v11.7C917.4,421.3,920.5,418.3,924.2,416.1z"/>
	<path class="st6" d="M1002.6,447.8h-43c0.2,4.7,1.4,8,3.6,10c2.1,2,4.9,3.1,8.2,3.1c2.8,0,5.1-0.7,7-2.1c1.8-1.4,3.1-3.2,3.7-5.4
		h20.1c-0.8,4.4-2.6,8.3-5.3,11.7c-2.7,3.4-6.2,6.1-10.4,8.1s-8.9,2.9-14.1,2.9c-6.1,0-11.5-1.3-16.2-3.8c-4.7-2.6-8.4-6.2-11-11
		c-2.7-4.8-4-10.4-4-16.9s1.3-12.2,3.9-16.9c2.6-4.8,6.3-8.4,11-11s10.1-3.8,16.2-3.8c6.1,0,11.5,1.3,16.2,3.8s8.3,6,10.8,10.6
		c2.6,4.6,3.8,9.8,3.8,15.7C1003.2,444.3,1003,446,1002.6,447.8z M980.7,430.7c-2.3-2-5.1-3.1-8.4-3.1c-3.5,0-6.4,1-8.7,3.1
		s-3.6,5.1-3.9,9.1H984C984.1,435.8,983,432.7,980.7,430.7z"/>
	<path class="st6" d="M1071,415.8c3.4,2.1,5.9,5.1,7.4,8.8v-31.4h19v82.1h-19v-11.2c-1.6,3.7-4,6.6-7.4,8.8
		c-3.4,2.1-7.5,3.2-12.2,3.2c-5.1,0-9.7-1.3-13.7-3.8c-4-2.6-7.2-6.2-9.5-11s-3.5-10.4-3.5-16.9s1.2-12.2,3.5-16.9s5.5-8.4,9.5-11
		s8.6-3.8,13.7-3.8C1063.5,412.6,1067.6,413.7,1071,415.8z M1055.1,433.3c-2.5,2.7-3.7,6.4-3.7,11.1s1.2,8.4,3.7,11.1s5.8,4,9.8,4
		s7.3-1.4,9.8-4.1c2.6-2.7,3.8-6.4,3.8-11c0-4.7-1.3-8.3-3.8-11c-2.6-2.7-5.8-4.1-9.8-4.1C1060.8,429.3,1057.6,430.6,1055.1,433.3z"
		/>
	<path class="st6" d="M1168.8,447.8h-43c0.2,4.7,1.4,8,3.6,10c2.1,2,4.9,3.1,8.2,3.1c2.8,0,5.1-0.7,7-2.1c1.8-1.4,3.1-3.2,3.7-5.4
		h20.1c-0.8,4.4-2.6,8.3-5.3,11.7c-2.7,3.4-6.2,6.1-10.4,8.1c-4.2,2-8.9,2.9-14.1,2.9c-6.1,0-11.5-1.3-16.2-3.8
		c-4.7-2.6-8.4-6.2-11-11c-2.7-4.8-4-10.4-4-16.9s1.3-12.2,3.9-16.9c2.6-4.8,6.3-8.4,11-11s10.1-3.8,16.2-3.8s11.5,1.3,16.2,3.8
		s8.3,6,10.8,10.6c2.6,4.6,3.8,9.8,3.8,15.7C1169.4,444.3,1169.2,446,1168.8,447.8z M1146.9,430.7c-2.3-2-5.1-3.1-8.4-3.1
		c-3.5,0-6.4,1-8.7,3.1c-2.3,2.1-3.6,5.1-3.9,9.1h24.2C1150.2,435.8,1149.1,432.7,1146.9,430.7z"/>
	<path class="st6" d="M1220.6,418.5c4.7,3.9,7.6,9.1,8.8,15.5h-17.8c-0.5-2.5-1.7-4.5-3.5-5.9s-4.1-2.2-6.8-2.2
		c-2.1,0-3.8,0.5-4.9,1.4s-1.7,2.2-1.7,3.9c0,1.9,1,3.4,3.1,4.3c2,1,5.2,1.9,9.6,2.9c4.7,1.1,8.6,2.2,11.7,3.4c3,1.1,5.7,3,7.9,5.6
		c2.2,2.6,3.3,6.1,3.3,10.4c0,3.6-1,6.7-2.9,9.4c-1.9,2.7-4.7,4.9-8.3,6.4c-3.6,1.6-7.9,2.3-12.9,2.3c-8.4,0-15.1-1.8-20.1-5.6
		c-5-3.7-8.1-9-9.2-15.9h18.3c0.3,2.7,1.4,4.7,3.4,6.1s4.5,2.1,7.6,2.1c2.1,0,3.8-0.5,4.9-1.5s1.7-2.3,1.7-3.9c0-2.1-1-3.7-3.1-4.6
		c-2-0.9-5.3-1.9-9.9-2.9s-8.4-2-11.3-3.1c-3-1.1-5.5-2.9-7.7-5.4c-2.1-2.5-3.2-5.9-3.2-10.2c0-5.5,2.1-10,6.3-13.5
		c4.2-3.4,10.2-5.2,17.9-5.2C1209.6,412.6,1215.9,414.6,1220.6,418.5z"/>
	<path class="st6" d="M1242.2,388.8c2.1-1.9,4.8-2.8,8.2-2.8c3.4,0,6.1,0.9,8.2,2.8s3.1,4.3,3.1,7.2c0,2.8-1,5.2-3.1,7
		c-2.1,1.9-4.8,2.8-8.2,2.8c-3.4,0-6.1-0.9-8.2-2.8s-3.1-4.2-3.1-7C1239.1,393.1,1240.1,390.7,1242.2,388.8z M1259.8,413.4v61.9h-19
		v-61.9H1259.8z"/>
	<path class="st6" d="M1308.7,415.8c3.4,2.1,5.9,5.1,7.5,8.8v-11.2h18.9V475c0,5.8-1.1,11-3.3,15.6c-2.2,4.6-5.6,8.3-10.2,11
		s-10.3,4.1-17.1,4.1c-9.3,0-16.8-2.2-22.4-6.6s-8.9-10.4-10-17.9h18.8c0.6,2.5,1.9,4.5,4.1,5.9c2.1,1.4,4.9,2.1,8.3,2.1
		c3.9,0,7.1-1.1,9.5-3.4s3.6-5.9,3.6-10.8v-10.9c-1.6,3.7-4.1,6.6-7.5,8.8c-3.4,2.1-7.5,3.2-12.2,3.2c-5.1,0-9.7-1.3-13.7-3.8
		c-4-2.6-7.2-6.2-9.5-11s-3.5-10.4-3.5-16.9s1.2-12.2,3.5-16.9s5.5-8.4,9.5-11s8.6-3.8,13.7-3.8
		C1301.2,412.6,1305.3,413.7,1308.7,415.8z M1292.7,433.3c-2.5,2.7-3.7,6.4-3.7,11.1s1.2,8.4,3.7,11.1s5.8,4,9.8,4s7.3-1.4,9.8-4.1
		c2.6-2.7,3.8-6.4,3.8-11c0-4.7-1.3-8.3-3.8-11c-2.6-2.7-5.8-4.1-9.8-4.1S1295.2,430.6,1292.7,433.3z"/>
	<path class="st6" d="M1404.4,419.8c4.2,4.7,6.3,11.2,6.3,19.5v36h-19v-33.7c0-4.1-1.1-7.4-3.3-9.7c-2.2-2.3-5.1-3.5-8.7-3.5
		c-3.8,0-6.9,1.2-9.2,3.7c-2.3,2.4-3.4,5.9-3.4,10.4v32.9h-19v-61.9h19v11.3c1.8-3.7,4.4-6.6,7.9-8.8c3.5-2.1,7.6-3.2,12.4-3.2
		C1394.6,412.7,1400.2,415.1,1404.4,419.8z"/>
	<path class="st6" d="M1543.7,419.8c4.4,4.7,6.5,11.2,6.5,19.6v36h-18.9v-33.7c0-3.9-1.1-7-3.2-9.2s-5-3.3-8.6-3.3
		c-3.8,0-6.8,1.2-8.9,3.5c-2.2,2.3-3.3,5.6-3.3,9.8v32.9h-19v-33.7c0-3.9-1-7-3.1-9.2s-4.9-3.3-8.5-3.3c-3.8,0-6.8,1.1-9,3.4
		s-3.3,5.6-3.3,9.9v32.9h-19v-61.9h19V424c1.6-3.5,4.1-6.2,7.5-8.2s7.3-3,11.8-3c4.7,0,8.9,1.1,12.5,3.3c3.6,2.2,6.4,5.3,8.2,9.4
		c2.1-3.8,5.1-6.9,8.8-9.2c3.7-2.3,7.9-3.4,12.4-3.4C1533.3,412.7,1539.3,415.1,1543.7,419.8z"/>
	<path class="st6" d="M1621.1,447.8h-43c0.2,4.7,1.4,8,3.6,10c2.1,2,4.9,3.1,8.2,3.1c2.8,0,5.1-0.7,7-2.1c1.8-1.4,3.1-3.2,3.7-5.4
		h20.1c-0.8,4.4-2.6,8.3-5.3,11.7c-2.7,3.4-6.2,6.1-10.4,8.1c-4.2,2-8.9,2.9-14.1,2.9c-6.1,0-11.5-1.3-16.2-3.8
		c-4.7-2.6-8.4-6.2-11-11c-2.7-4.8-4-10.4-4-16.9s1.3-12.2,3.9-16.9c2.6-4.8,6.3-8.4,11-11s10.1-3.8,16.2-3.8s11.5,1.3,16.2,3.8
		s8.3,6,10.8,10.6c2.6,4.6,3.8,9.8,3.8,15.7C1621.7,444.3,1621.5,446,1621.1,447.8z M1599.2,430.7c-2.3-2-5.1-3.1-8.4-3.1
		c-3.5,0-6.4,1-8.7,3.1c-2.3,2.1-3.6,5.1-3.9,9.1h24.2C1602.6,435.8,1601.5,432.7,1599.2,430.7z"/>
	<path class="st6" d="M1689.8,447.8h-43c0.2,4.7,1.4,8,3.6,10c2.1,2,4.9,3.1,8.2,3.1c2.8,0,5.1-0.7,7-2.1c1.8-1.4,3.1-3.2,3.7-5.4
		h20.1c-0.8,4.4-2.6,8.3-5.3,11.7c-2.7,3.4-6.2,6.1-10.4,8.1c-4.2,2-8.9,2.9-14.1,2.9c-6.1,0-11.5-1.3-16.2-3.8
		c-4.7-2.6-8.4-6.2-11-11c-2.7-4.8-4-10.4-4-16.9s1.3-12.2,3.9-16.9c2.6-4.8,6.3-8.4,11-11s10.1-3.8,16.2-3.8s11.5,1.3,16.2,3.8
		s8.3,6,10.8,10.6c2.6,4.6,3.8,9.8,3.8,15.7C1690.4,444.3,1690.2,446,1689.8,447.8z M1667.9,430.7c-2.3-2-5.1-3.1-8.4-3.1
		c-3.5,0-6.4,1-8.7,3.1c-2.3,2.1-3.6,5.1-3.9,9.1h24.2C1671.3,435.8,1670.2,432.7,1667.9,430.7z"/>
	<path class="st6" d="M1735.3,459v16.3h-8.5c-7.3,0-12.9-1.8-16.9-5.4s-6-9.5-6-17.8v-22.8h-8.3v-16h8.3v-15.2h19v15.2h12.4v16
		h-12.4v23.1c0,2.4,0.5,4.1,1.5,5.1s2.7,1.4,5.1,1.4L1735.3,459L1735.3,459z"/>
	<path class="st6" d="M1787.4,418.5c4.7,3.9,7.6,9.1,8.8,15.5h-17.8c-0.5-2.5-1.7-4.5-3.5-5.9s-4.1-2.2-6.8-2.2
		c-2.1,0-3.8,0.5-4.9,1.4s-1.7,2.2-1.7,3.9c0,1.9,1,3.4,3.1,4.3c2,1,5.2,1.9,9.6,2.9c4.7,1.1,8.6,2.2,11.7,3.4c3,1.1,5.7,3,7.9,5.6
		c2.2,2.6,3.3,6.1,3.3,10.4c0,3.6-1,6.7-2.9,9.4c-1.9,2.7-4.7,4.9-8.3,6.4c-3.6,1.6-7.9,2.3-12.9,2.3c-8.4,0-15.1-1.8-20.1-5.6
		c-5-3.7-8.1-9-9.2-15.9h18.3c0.3,2.7,1.4,4.7,3.4,6.1s4.5,2.1,7.6,2.1c2.1,0,3.8-0.5,4.9-1.5s1.7-2.3,1.7-3.9c0-2.1-1-3.7-3.1-4.6
		c-2-0.9-5.3-1.9-9.9-2.9s-8.4-2-11.3-3.1c-3-1.1-5.5-2.9-7.7-5.4c-2.1-2.5-3.2-5.9-3.2-10.2c0-5.5,2.1-10,6.3-13.5
		c4.2-3.4,10.2-5.2,17.9-5.2C1776.4,412.6,1782.7,414.6,1787.4,418.5z"/>
	<path class="st6" d="M1860.2,405c-3.1,0-5.4,0.7-6.8,2s-2.2,3.5-2.3,6.4h11.2v16h-11.2v46h-19v-46h-7.4v-16h7.4v-0.7
		c0-7.7,2.2-13.6,6.7-17.8c4.5-4.2,11-6.3,19.5-6.3c1.8,0,3.1,0,4,0.1V405H1860.2z"/>
	<path class="st6" d="M1932.3,413.4v61.9h-19.1v-11.2c-1.8,3.6-4.4,6.5-7.9,8.7c-3.5,2.1-7.6,3.2-12.3,3.2c-7.1,0-12.7-2.4-16.9-7.1
		c-4.2-4.7-6.3-11.2-6.3-19.5v-36h18.9V447c0,4.2,1.1,7.5,3.3,9.8c2.2,2.3,5.1,3.5,8.8,3.5c3.8,0,6.9-1.2,9.1-3.7
		c2.2-2.4,3.3-5.9,3.3-10.4v-32.9h19.1V413.4z"/>
	<path class="st6" d="M2001.6,419.8c4.2,4.7,6.3,11.2,6.3,19.5v36h-19v-33.7c0-4.1-1.1-7.4-3.3-9.7c-2.2-2.3-5.1-3.5-8.7-3.5
		c-3.8,0-6.9,1.2-9.2,3.7c-2.3,2.4-3.4,5.9-3.4,10.4v32.9h-19v-61.9h19v11.3c1.8-3.7,4.4-6.6,7.9-8.8c3.5-2.1,7.6-3.2,12.4-3.2
		C1991.8,412.7,1997.4,415.1,2001.6,419.8z"/>
	<path class="st6" d="M2068.5,419.2c5.4,4.4,8.8,10.5,10.2,18.1h-20.1c-0.6-2.7-1.8-4.7-3.7-6.2s-4.2-2.2-7-2.2
		c-3.3,0-6.1,1.3-8.2,3.9s-3.2,6.5-3.2,11.5s1.1,8.9,3.2,11.5s4.9,3.9,8.2,3.9c2.8,0,5.1-0.7,7-2.2c1.8-1.5,3.1-3.6,3.7-6.2h20.1
		c-1.4,7.7-4.8,13.7-10.2,18.1s-12.1,6.6-20.1,6.6c-6.1,0-11.5-1.3-16.2-3.8c-4.7-2.6-8.4-6.2-11-11c-2.7-4.8-4-10.4-4-16.9
		s1.3-12.2,3.9-16.9c2.6-4.8,6.3-8.4,11-11s10.1-3.8,16.2-3.8C2056.4,412.6,2063.1,414.8,2068.5,419.2z"/>
	<path class="st6" d="M2123.6,459v16.3h-8.5c-7.3,0-12.9-1.8-16.9-5.4s-6-9.5-6-17.8v-22.8h-8.3v-16h8.3v-15.2h19v15.2h12.4v16
		h-12.4v23.1c0,2.4,0.5,4.1,1.5,5.1s2.7,1.4,5.1,1.4L2123.6,459L2123.6,459z"/>
	<path class="st6" d="M2135.6,388.8c2.1-1.9,4.8-2.8,8.2-2.8s6.1,0.9,8.2,2.8c2.1,1.9,3.1,4.3,3.1,7.2c0,2.8-1,5.2-3.1,7
		c-2.1,1.9-4.8,2.8-8.2,2.8s-6.1-0.9-8.2-2.8c-2.1-1.9-3.1-4.2-3.1-7C2132.5,393.1,2133.5,390.7,2135.6,388.8z M2153.3,413.4v61.9
		h-19v-61.9H2153.3z"/>
	<path class="st6" d="M2211.8,416.5c4.8,2.6,8.7,6.2,11.4,11c2.8,4.8,4.2,10.4,4.2,16.9c0,6.4-1.4,12.1-4.2,16.9s-6.6,8.5-11.4,11
		c-4.8,2.6-10.3,3.8-16.5,3.8c-6.1,0-11.7-1.3-16.5-3.8c-4.9-2.6-8.7-6.2-11.5-11s-4.2-10.4-4.2-16.9c0-6.4,1.4-12.1,4.2-16.9
		s6.6-8.5,11.5-11c4.9-2.6,10.4-3.8,16.5-3.8C2201.5,412.6,2207,413.9,2211.8,416.5z M2186.2,433c-2.5,2.6-3.7,6.4-3.7,11.4
		s1.2,8.7,3.7,11.3c2.5,2.6,5.5,3.9,9.2,3.9c3.6,0,6.7-1.3,9.1-3.9c2.4-2.6,3.7-6.4,3.7-11.3c0-5-1.2-8.8-3.7-11.4
		c-2.4-2.6-5.5-3.9-9.1-3.9C2191.7,429.1,2188.6,430.4,2186.2,433z"/>
	<path class="st6" d="M2293.5,419.8c4.2,4.7,6.3,11.2,6.3,19.5v36h-19v-33.7c0-4.1-1.1-7.4-3.3-9.7c-2.2-2.3-5.1-3.5-8.7-3.5
		c-3.8,0-6.9,1.2-9.2,3.7c-2.3,2.4-3.4,5.9-3.4,10.4v32.9h-19v-61.9h19v11.3c1.8-3.7,4.4-6.6,7.9-8.8c3.5-2.1,7.6-3.2,12.4-3.2
		C2283.7,412.7,2289.3,415.1,2293.5,419.8z"/>
</g>
</svg>
